<svg width="1278" height="213" viewBox="0 0 1278 213" fill="none" xmlns="http://www.w3.org/2000/svg">
<g clip-path="url(#clip0_111_180)">
<path d="M115.86 89.693L9.56841 195.943C5.65786 199.854 5.65786 206.177 9.56841 210.046C13.479 213.915 19.8024 213.957 23.6713 210.046L47.3842 186.333H75.6733C96.3493 186.333 116.401 180.343 133.499 169.277C138.117 166.281 135.788 159.708 130.255 159.708C128.133 159.708 126.427 158.003 126.427 155.881C126.427 154.175 127.55 152.719 129.131 152.22L162.829 142.111C163.869 141.778 164.825 141.237 165.616 140.447L174.935 131.128C179.136 126.926 176.141 119.771 170.234 119.771H156.838C154.716 119.771 153.011 118.065 153.011 115.944C153.011 114.238 154.134 112.782 155.715 112.283L202.308 98.3045C203.972 97.8053 205.387 96.682 206.177 95.1012C210.67 86.3649 213 76.5885 213 66.5625C213 49.5059 206.219 33.1564 194.155 21.092L191.866 18.8039C179.844 6.78106 163.494 0 146.438 0C129.381 0 113.031 6.78105 100.967 18.8455L57.8262 61.9863C37.8575 81.9551 26.625 109.038 26.625 137.285V160.291L105.502 81.4559C108.081 78.8766 112.324 78.8766 114.904 81.4559C117.15 83.7024 117.441 87.1137 115.819 89.693H115.86Z" fill="#49A6FD"/>
<path d="M284.296 152V62.4H332.168C344.541 62.4 353.672 64.6187 359.56 69.056C365.448 73.408 368.392 78.9973 368.392 85.824C368.392 90.3467 367.112 94.4 364.552 97.984C362.077 101.483 358.451 104.256 353.672 106.304C348.893 108.352 343.005 109.376 336.008 109.376L338.568 102.464C345.565 102.464 351.581 103.445 356.616 105.408C361.736 107.371 365.661 110.229 368.392 113.984C371.208 117.653 372.616 122.091 372.616 127.296C372.616 135.061 369.373 141.12 362.888 145.472C356.488 149.824 347.101 152 334.728 152H284.296ZM313.992 130.88H332.168C335.496 130.88 337.971 130.283 339.592 129.088C341.299 127.893 342.152 126.144 342.152 123.84C342.152 121.536 341.299 119.787 339.592 118.592C337.971 117.397 335.496 116.8 332.168 116.8H311.944V96.832H328.072C331.485 96.832 333.96 96.2773 335.496 95.168C337.117 93.9733 337.928 92.3093 337.928 90.176C337.928 87.9573 337.117 86.2933 335.496 85.184C333.96 84.0747 331.485 83.52 328.072 83.52H313.992V130.88ZM382.4 152V81.984H411.328V152H382.4ZM396.864 76.352C391.573 76.352 387.349 74.944 384.192 72.128C381.035 69.312 379.456 65.8133 379.456 61.632C379.456 57.4507 381.035 53.952 384.192 51.136C387.349 48.32 391.573 46.912 396.864 46.912C402.155 46.912 406.379 48.2347 409.536 50.88C412.693 53.5253 414.272 56.9387 414.272 61.12C414.272 65.5573 412.693 69.2267 409.536 72.128C406.379 74.944 402.155 76.352 396.864 76.352ZM424.15 152V81.984H451.67V103.104L447.19 97.088C449.323 91.6267 452.737 87.5307 457.43 84.8C462.123 82.0693 467.755 80.704 474.326 80.704V106.304C473.046 106.133 471.894 106.005 470.87 105.92C469.931 105.835 468.95 105.792 467.926 105.792C463.574 105.792 459.99 106.944 457.174 109.248C454.443 111.467 453.078 115.349 453.078 120.896V152H424.15ZM512.62 153.28C506.561 153.28 500.929 151.829 495.724 148.928C490.604 145.941 486.508 141.76 483.436 136.384C480.364 130.923 478.828 124.437 478.828 116.928C478.828 109.419 480.364 102.976 483.436 97.6C486.508 92.1387 490.604 87.9573 495.724 85.056C500.929 82.1547 506.561 80.704 512.62 80.704C518.764 80.704 523.799 82.0267 527.724 84.672C531.649 87.232 534.551 91.2 536.428 96.576C538.305 101.867 539.244 108.651 539.244 116.928C539.244 125.291 538.348 132.16 536.556 137.536C534.849 142.912 532.033 146.88 528.108 149.44C524.268 152 519.105 153.28 512.62 153.28ZM519.532 130.752C521.665 130.752 523.585 130.24 525.292 129.216C526.999 128.192 528.364 126.656 529.388 124.608C530.412 122.475 530.924 119.915 530.924 116.928C530.924 113.856 530.412 111.339 529.388 109.376C528.364 107.328 526.999 105.792 525.292 104.768C523.585 103.744 521.665 103.232 519.532 103.232C517.399 103.232 515.479 103.744 513.772 104.768C512.065 105.792 510.7 107.328 509.676 109.376C508.652 111.339 508.14 113.856 508.14 116.928C508.14 119.915 508.652 122.475 509.676 124.608C510.7 126.656 512.065 128.192 513.772 129.216C515.479 130.24 517.399 130.752 519.532 130.752ZM531.82 152V142.528L531.692 116.928L530.412 91.328V57.024H559.34V152H531.82ZM611.421 152V62.4H636.253L681.821 116.928H670.301V62.4H699.741V152H674.909L629.341 97.472H640.861V152H611.421ZM752.056 153.28C743.523 153.28 736.056 151.701 729.656 148.544C723.341 145.387 718.435 141.077 714.936 135.616C711.437 130.069 709.688 123.84 709.688 116.928C709.688 109.845 711.395 103.573 714.808 98.112C718.307 92.6507 723.043 88.384 729.016 85.312C735.075 82.24 741.859 80.704 749.368 80.704C756.28 80.704 762.637 82.0693 768.44 84.8C774.328 87.5307 779.021 91.584 782.52 96.96C786.104 102.336 787.896 108.992 787.896 116.928C787.896 117.952 787.853 119.104 787.768 120.384C787.683 121.579 787.597 122.688 787.512 123.712H733.624V109.76H772.152L761.272 113.472C761.272 110.741 760.76 108.437 759.736 106.56C758.797 104.597 757.475 103.104 755.768 102.08C754.061 100.971 752.013 100.416 749.624 100.416C747.235 100.416 745.144 100.971 743.352 102.08C741.645 103.104 740.323 104.597 739.384 106.56C738.445 108.437 737.976 110.741 737.976 113.472V117.824C737.976 120.811 738.573 123.371 739.768 125.504C740.963 127.637 742.669 129.259 744.888 130.368C747.107 131.392 749.795 131.904 752.952 131.904C756.195 131.904 758.84 131.477 760.888 130.624C763.021 129.771 765.24 128.491 767.544 126.784L782.648 142.016C779.235 145.685 775.011 148.501 769.976 150.464C765.027 152.341 759.053 153.28 752.056 153.28ZM830.817 153.28C821.174 153.28 813.665 150.976 808.289 146.368C802.913 141.675 800.225 134.507 800.225 124.864V66.24H829.153V124.608C829.153 126.741 829.708 128.405 830.817 129.6C832.012 130.795 833.462 131.392 835.169 131.392C837.644 131.392 839.82 130.752 841.697 129.472L848.609 149.568C846.39 150.848 843.702 151.787 840.545 152.384C837.473 152.981 834.23 153.28 830.817 153.28ZM790.625 106.944V85.824H843.489V106.944H790.625ZM871.802 152L847.482 81.984H874.874L893.306 138.816H880.122L899.45 81.984H924.026L942.458 138.816H929.658L948.73 81.984H974.074L949.754 152H921.594L906.874 106.944H915.322L899.962 152H871.802ZM1014.77 153.28C1006.83 153.28 999.791 151.744 993.647 148.672C987.588 145.515 982.81 141.205 979.311 135.744C975.812 130.283 974.063 124.011 974.063 116.928C974.063 109.845 975.812 103.573 979.311 98.112C982.81 92.6507 987.588 88.384 993.647 85.312C999.791 82.24 1006.83 80.704 1014.77 80.704C1022.7 80.704 1029.74 82.24 1035.89 85.312C1042.03 88.384 1046.81 92.6507 1050.22 98.112C1053.72 103.573 1055.47 109.845 1055.47 116.928C1055.47 124.011 1053.72 130.283 1050.22 135.744C1046.81 141.205 1042.03 145.515 1035.89 148.672C1029.74 151.744 1022.7 153.28 1014.77 153.28ZM1014.77 130.752C1016.9 130.752 1018.82 130.24 1020.53 129.216C1022.23 128.192 1023.6 126.656 1024.62 124.608C1025.65 122.475 1026.16 119.915 1026.16 116.928C1026.16 113.856 1025.65 111.339 1024.62 109.376C1023.6 107.328 1022.23 105.792 1020.53 104.768C1018.82 103.744 1016.9 103.232 1014.77 103.232C1012.63 103.232 1010.71 103.744 1009.01 104.768C1007.3 105.792 1005.94 107.328 1004.91 109.376C1003.89 111.339 1003.38 113.856 1003.38 116.928C1003.38 119.915 1003.89 122.475 1004.91 124.608C1005.94 126.656 1007.3 128.192 1009.01 129.216C1010.71 130.24 1012.63 130.752 1014.77 130.752ZM1064.53 152V81.984H1092.05V103.104L1087.57 97.088C1089.7 91.6267 1093.11 87.5307 1097.81 84.8C1102.5 82.0693 1108.13 80.704 1114.7 80.704V106.304C1113.42 106.133 1112.27 106.005 1111.25 105.92C1110.31 105.835 1109.33 105.792 1108.3 105.792C1103.95 105.792 1100.37 106.944 1097.55 109.248C1094.82 111.467 1093.45 115.349 1093.45 120.896V152H1064.53ZM1147.09 140.48L1147.73 106.432L1171.92 81.984H1206.1L1174.1 115.52L1159.64 127.168L1147.09 140.48ZM1122.9 152V57.024H1151.83V152H1122.9ZM1173.46 152L1154.26 127.68L1172.05 105.792L1208.4 152H1173.46ZM1239.04 153.28C1233.07 153.28 1227.18 152.64 1221.38 151.36C1215.58 150.08 1210.88 148.416 1207.3 146.368L1215.23 127.296C1218.56 129.259 1222.4 130.795 1226.75 131.904C1231.19 133.013 1235.5 133.568 1239.68 133.568C1243.18 133.568 1245.53 133.269 1246.72 132.672C1248 132.075 1248.64 131.264 1248.64 130.24C1248.64 129.216 1247.92 128.491 1246.47 128.064C1245.02 127.552 1243.1 127.168 1240.71 126.912C1238.32 126.656 1235.67 126.357 1232.77 126.016C1229.95 125.589 1227.1 124.992 1224.19 124.224C1221.29 123.456 1218.65 122.304 1216.26 120.768C1213.87 119.232 1211.95 117.184 1210.5 114.624C1209.05 111.979 1208.32 108.651 1208.32 104.64C1208.32 100.203 1209.64 96.192 1212.29 92.608C1215.02 89.024 1219.03 86.1653 1224.32 84.032C1229.7 81.8133 1236.31 80.704 1244.16 80.704C1249.28 80.704 1254.4 81.1733 1259.52 82.112C1264.64 83.0507 1269.04 84.5013 1272.71 86.464L1264.77 105.536C1261.19 103.573 1257.64 102.251 1254.15 101.568C1250.73 100.8 1247.53 100.416 1244.55 100.416C1240.88 100.416 1238.36 100.757 1236.99 101.44C1235.71 102.123 1235.07 102.891 1235.07 103.744C1235.07 104.768 1235.8 105.536 1237.25 106.048C1238.7 106.56 1240.62 106.944 1243.01 107.2C1245.4 107.456 1248 107.797 1250.82 108.224C1253.72 108.565 1256.58 109.163 1259.39 110.016C1262.3 110.784 1264.94 111.936 1267.33 113.472C1269.72 115.008 1271.64 117.099 1273.09 119.744C1274.54 122.304 1275.27 125.589 1275.27 129.6C1275.27 133.781 1273.94 137.707 1271.3 141.376C1268.65 144.96 1264.64 147.861 1259.27 150.08C1253.89 152.213 1247.15 153.28 1239.04 153.28Z" fill="#49A6FD"/>
</g>
<defs>
<clipPath id="clip0_111_180">
<rect width="1278" height="213" fill="white"/>
</clipPath>
</defs>
</svg>
