<svg width="202" height="202" viewBox="0 0 202 202" fill="none" xmlns="http://www.w3.org/2000/svg">
<path d="M109.877 85.0609L9.07417 185.824C5.36558 189.533 5.36558 195.53 9.07417 199.199C12.7828 202.868 18.7796 202.907 22.4488 199.199L44.9371 176.711H71.7652C91.3734 176.711 110.39 171.029 126.605 160.535C130.984 157.694 128.775 151.461 123.528 151.461C121.516 151.461 119.898 149.843 119.898 147.831C119.898 146.213 120.963 144.832 122.462 144.359L154.419 134.772C155.406 134.456 156.313 133.943 157.063 133.194L165.9 124.356C169.885 120.371 167.044 113.586 161.442 113.586H148.738C146.726 113.586 145.109 111.968 145.109 109.956C145.109 108.338 146.174 106.957 147.673 106.484L191.86 93.2277C193.439 92.7543 194.78 91.6891 195.53 90.1898C199.791 81.9047 202 72.6332 202 63.125C202 46.9492 195.569 31.4441 184.128 20.0027L181.958 17.8328C170.556 6.43086 155.051 0 138.875 0C122.699 0 107.194 6.43086 95.7527 17.8723L54.8398 58.7852C35.9023 77.7227 25.25 103.407 25.25 130.195V152.013L100.053 77.2492C102.499 74.8031 106.523 74.8031 108.969 77.2492C111.1 79.3797 111.376 82.6148 109.837 85.0609H109.877Z" fill="#49A6FD"/>
</svg>
